<mxfile host="app.diagrams.net" modified="2023-08-27T16:51:19.202Z" agent="Mozilla/5.0 (Windows NT 10.0; Win64; x64) AppleWebKit/537.36 (KHTML, like Gecko) Chrome/116.0.0.0 Safari/537.36 Edg/116.0.1938.54" etag="vPXYqbJpb633oov2Ek82" version="21.6.9" type="github">
  <diagram name="第 1 页" id="f-w1hROpVEtGUasfpLYD">
    <mxGraphModel dx="780" dy="428" grid="1" gridSize="10" guides="1" tooltips="1" connect="1" arrows="1" fold="1" page="1" pageScale="1" pageWidth="827" pageHeight="1169" math="0" shadow="0">
      <root>
        <mxCell id="0" />
        <mxCell id="1" parent="0" />
        <mxCell id="sjk9gGX9ZU6b4HF3eAcp-1" value="" style="rounded=0;whiteSpace=wrap;html=1;fillColor=#d5e8d4;strokeColor=#82b366;" vertex="1" parent="1">
          <mxGeometry x="130" y="280" width="520" height="250" as="geometry" />
        </mxCell>
        <mxCell id="sjk9gGX9ZU6b4HF3eAcp-2" value="Host" style="text;html=1;strokeColor=none;fillColor=none;align=center;verticalAlign=middle;whiteSpace=wrap;rounded=0;" vertex="1" parent="1">
          <mxGeometry x="140" y="290" width="60" height="30" as="geometry" />
        </mxCell>
        <mxCell id="sjk9gGX9ZU6b4HF3eAcp-3" value="" style="rounded=0;whiteSpace=wrap;html=1;fillColor=#66B2FF;strokeColor=#6c8ebf;" vertex="1" parent="1">
          <mxGeometry x="220" y="330" width="430" height="200" as="geometry" />
        </mxCell>
        <mxCell id="sjk9gGX9ZU6b4HF3eAcp-4" value="BlueField2" style="text;html=1;strokeColor=none;fillColor=none;align=center;verticalAlign=middle;whiteSpace=wrap;rounded=0;" vertex="1" parent="1">
          <mxGeometry x="590" y="500" width="60" height="30" as="geometry" />
        </mxCell>
        <mxCell id="sjk9gGX9ZU6b4HF3eAcp-5" style="edgeStyle=orthogonalEdgeStyle;rounded=0;orthogonalLoop=1;jettySize=auto;html=1;exitX=1;exitY=0.5;exitDx=0;exitDy=0;entryX=0;entryY=0.5;entryDx=0;entryDy=0;startArrow=classic;startFill=1;endArrow=classic;endFill=1;" edge="1" parent="1" source="sjk9gGX9ZU6b4HF3eAcp-6" target="sjk9gGX9ZU6b4HF3eAcp-7">
          <mxGeometry relative="1" as="geometry" />
        </mxCell>
        <mxCell id="sjk9gGX9ZU6b4HF3eAcp-6" value="pf0" style="rounded=0;whiteSpace=wrap;html=1;fillColor=#f5f5f5;fontColor=#333333;strokeColor=#FFFFFF;" vertex="1" parent="1">
          <mxGeometry x="150" y="350" width="50" height="30" as="geometry" />
        </mxCell>
        <mxCell id="sjk9gGX9ZU6b4HF3eAcp-7" value="pf0hpf" style="rounded=0;whiteSpace=wrap;html=1;fillColor=#f5f5f5;fontColor=#333333;strokeColor=#FFFFFF;" vertex="1" parent="1">
          <mxGeometry x="250" y="350" width="50" height="30" as="geometry" />
        </mxCell>
        <mxCell id="sjk9gGX9ZU6b4HF3eAcp-8" value="" style="rounded=0;whiteSpace=wrap;html=1;fillColor=#dae8fc;strokeColor=#6c8ebf;" vertex="1" parent="1">
          <mxGeometry x="414" y="350" width="206" height="120" as="geometry" />
        </mxCell>
        <mxCell id="sjk9gGX9ZU6b4HF3eAcp-9" value="Arm" style="text;html=1;strokeColor=none;fillColor=none;align=center;verticalAlign=middle;whiteSpace=wrap;rounded=0;" vertex="1" parent="1">
          <mxGeometry x="560" y="352.5" width="60" height="30" as="geometry" />
        </mxCell>
        <mxCell id="sjk9gGX9ZU6b4HF3eAcp-10" style="edgeStyle=orthogonalEdgeStyle;rounded=0;orthogonalLoop=1;jettySize=auto;html=1;exitX=0.5;exitY=0;exitDx=0;exitDy=0;entryX=0.5;entryY=1;entryDx=0;entryDy=0;startArrow=classic;startFill=1;" edge="1" parent="1" source="sjk9gGX9ZU6b4HF3eAcp-11" target="sjk9gGX9ZU6b4HF3eAcp-7">
          <mxGeometry relative="1" as="geometry" />
        </mxCell>
        <mxCell id="sjk9gGX9ZU6b4HF3eAcp-11" value="OVS-BR1" style="rounded=0;whiteSpace=wrap;html=1;fillColor=#f8cecc;strokeColor=#b85450;" vertex="1" parent="1">
          <mxGeometry x="240" y="404" width="70" height="20" as="geometry" />
        </mxCell>
        <mxCell id="sjk9gGX9ZU6b4HF3eAcp-12" style="edgeStyle=orthogonalEdgeStyle;rounded=0;orthogonalLoop=1;jettySize=auto;html=1;exitX=0.5;exitY=1;exitDx=0;exitDy=0;startArrow=classic;startFill=1;" edge="1" parent="1" source="sjk9gGX9ZU6b4HF3eAcp-14" target="sjk9gGX9ZU6b4HF3eAcp-19">
          <mxGeometry relative="1" as="geometry" />
        </mxCell>
        <mxCell id="sjk9gGX9ZU6b4HF3eAcp-13" style="edgeStyle=orthogonalEdgeStyle;rounded=0;orthogonalLoop=1;jettySize=auto;html=1;exitX=1;exitY=0.5;exitDx=0;exitDy=0;entryX=0;entryY=0.5;entryDx=0;entryDy=0;startArrow=classic;startFill=1;" edge="1" parent="1" source="sjk9gGX9ZU6b4HF3eAcp-14" target="sjk9gGX9ZU6b4HF3eAcp-18">
          <mxGeometry relative="1" as="geometry" />
        </mxCell>
        <mxCell id="sjk9gGX9ZU6b4HF3eAcp-14" value="OVS-BR2" style="rounded=0;whiteSpace=wrap;html=1;fillColor=#f8cecc;strokeColor=#b85450;" vertex="1" parent="1">
          <mxGeometry x="240" y="443" width="70" height="20" as="geometry" />
        </mxCell>
        <mxCell id="sjk9gGX9ZU6b4HF3eAcp-15" style="edgeStyle=orthogonalEdgeStyle;rounded=0;orthogonalLoop=1;jettySize=auto;html=1;exitX=0;exitY=0.5;exitDx=0;exitDy=0;entryX=1;entryY=0.5;entryDx=0;entryDy=0;startArrow=classic;startFill=1;" edge="1" parent="1" source="sjk9gGX9ZU6b4HF3eAcp-16" target="sjk9gGX9ZU6b4HF3eAcp-11">
          <mxGeometry relative="1" as="geometry" />
        </mxCell>
        <mxCell id="sjk9gGX9ZU6b4HF3eAcp-16" value="SF0" style="rounded=0;whiteSpace=wrap;html=1;fillColor=#f5f5f5;fontColor=#333333;strokeColor=#FFFFFF;" vertex="1" parent="1">
          <mxGeometry x="389" y="370" width="50" height="30" as="geometry" />
        </mxCell>
        <mxCell id="sjk9gGX9ZU6b4HF3eAcp-17" style="edgeStyle=orthogonalEdgeStyle;rounded=0;orthogonalLoop=1;jettySize=auto;html=1;exitX=1;exitY=0.5;exitDx=0;exitDy=0;entryX=0.5;entryY=1;entryDx=0;entryDy=0;startArrow=classic;startFill=1;" edge="1" parent="1" source="sjk9gGX9ZU6b4HF3eAcp-18" target="sjk9gGX9ZU6b4HF3eAcp-21">
          <mxGeometry relative="1" as="geometry" />
        </mxCell>
        <mxCell id="sjk9gGX9ZU6b4HF3eAcp-18" value="SF1" style="rounded=0;whiteSpace=wrap;html=1;fillColor=#f5f5f5;fontColor=#333333;strokeColor=#FFFFFF;" vertex="1" parent="1">
          <mxGeometry x="389" y="415" width="50" height="30" as="geometry" />
        </mxCell>
        <mxCell id="sjk9gGX9ZU6b4HF3eAcp-19" value="P0" style="rounded=0;whiteSpace=wrap;html=1;fillColor=#f5f5f5;fontColor=#333333;strokeColor=#FFFFFF;" vertex="1" parent="1">
          <mxGeometry x="339" y="520" width="50" height="30" as="geometry" />
        </mxCell>
        <mxCell id="sjk9gGX9ZU6b4HF3eAcp-20" style="edgeStyle=orthogonalEdgeStyle;rounded=0;orthogonalLoop=1;jettySize=auto;html=1;exitX=0.5;exitY=0;exitDx=0;exitDy=0;startArrow=classic;startFill=1;" edge="1" parent="1" source="sjk9gGX9ZU6b4HF3eAcp-21" target="sjk9gGX9ZU6b4HF3eAcp-16">
          <mxGeometry relative="1" as="geometry" />
        </mxCell>
        <mxCell id="sjk9gGX9ZU6b4HF3eAcp-21" value="Application" style="rounded=1;whiteSpace=wrap;html=1;fillColor=#e1d5e7;strokeColor=#9673a6;" vertex="1" parent="1">
          <mxGeometry x="480" y="382.5" width="80" height="45" as="geometry" />
        </mxCell>
      </root>
    </mxGraphModel>
  </diagram>
</mxfile>
